<svg width="1728" height="1117" viewBox="0 0 1728 1117" fill="none" xmlns="http://www.w3.org/2000/svg">
<g clip-path="url(#clip0_1_387)">
<circle cx="1763.53" cy="61.5322" r="500" transform="rotate(79.6732 1763.53 61.5322)" fill="url(#paint0_linear_1_387)"/>
<circle cx="1763.53" cy="61.5322" r="449.5" transform="rotate(79.6732 1763.53 61.5322)" stroke="#101218" stroke-opacity="0.4"/>
<circle cx="1763.53" cy="61.5322" r="200" transform="rotate(79.6732 1763.53 61.5322)" fill="#101218"/>
<circle cx="-262.382" cy="281.618" r="500" transform="rotate(-70.4258 -262.382 281.618)" fill="url(#paint1_linear_1_387)"/>
<path d="M-2108 1528C-1635.4 1256 -352.849 760.7 996.608 955.5C2346.06 1150.3 2487.32 1003.67 2389.26 906" stroke="white" stroke-opacity="0.05"/>
<path d="M-1922 1602C-1449.4 1330 -166.849 834.7 1182.61 1029.5C2532.06 1224.3 2673.32 1077.67 2575.26 980" stroke="white" stroke-opacity="0.05"/>
<circle cx="1763.53" cy="61.5322" r="500" transform="rotate(79.6732 1763.53 61.5322)" fill="url(#paint2_linear_1_387)"/>
<circle cx="1763.53" cy="61.5322" r="449.5" transform="rotate(79.6732 1763.53 61.5322)" stroke="#101218" stroke-opacity="0.4"/>
<circle cx="1763.53" cy="61.5322" r="200" transform="rotate(79.6732 1763.53 61.5322)" fill="#101218"/>
<circle cx="-262.382" cy="281.618" r="500" transform="rotate(-70.4258 -262.382 281.618)" fill="url(#paint3_linear_1_387)"/>
<path d="M-2108 1528C-1635.4 1256 -352.849 760.7 996.608 955.5C2346.06 1150.3 2487.32 1003.67 2389.26 906" stroke="white" stroke-opacity="0.05"/>
<path d="M-1922 1602C-1449.4 1330 -166.849 834.7 1182.61 1029.5C2532.06 1224.3 2673.32 1077.67 2575.26 980" stroke="white" stroke-opacity="0.05"/>
</g>
<defs>
<linearGradient id="paint0_linear_1_387" x1="1493.53" y1="-348.968" x2="2106.03" y2="244.532" gradientUnits="userSpaceOnUse">
<stop stop-color="#0578FF"/>
<stop offset="0.416667" stop-color="#0578FF" stop-opacity="0.4"/>
<stop offset="0.786458" stop-color="#0578FF" stop-opacity="0.1"/>
<stop offset="1" stop-color="#0578FF" stop-opacity="0"/>
</linearGradient>
<linearGradient id="paint1_linear_1_387" x1="-532.382" y1="-128.882" x2="80.118" y2="464.618" gradientUnits="userSpaceOnUse">
<stop stop-color="#0578FF" stop-opacity="0"/>
<stop offset="0.161458" stop-color="#0578FF" stop-opacity="0.17"/>
<stop offset="0.229167" stop-color="#0578FF"/>
<stop offset="0.416667" stop-color="#0578FF" stop-opacity="0.4"/>
<stop offset="0.786458" stop-color="#0578FF" stop-opacity="0.1"/>
<stop offset="1" stop-color="#0578FF" stop-opacity="0"/>
</linearGradient>
<linearGradient id="paint2_linear_1_387" x1="1493.53" y1="-348.968" x2="2106.03" y2="244.532" gradientUnits="userSpaceOnUse">
<stop stop-color="#0578FF"/>
<stop offset="0.416667" stop-color="#0578FF" stop-opacity="0.4"/>
<stop offset="0.786458" stop-color="#0578FF" stop-opacity="0.1"/>
<stop offset="1" stop-color="#0578FF" stop-opacity="0"/>
</linearGradient>
<linearGradient id="paint3_linear_1_387" x1="-532.382" y1="-128.882" x2="80.118" y2="464.618" gradientUnits="userSpaceOnUse">
<stop stop-color="#0578FF" stop-opacity="0"/>
<stop offset="0.161458" stop-color="#0578FF" stop-opacity="0.17"/>
<stop offset="0.229167" stop-color="#0578FF"/>
<stop offset="0.416667" stop-color="#0578FF" stop-opacity="0.4"/>
<stop offset="0.786458" stop-color="#0578FF" stop-opacity="0.1"/>
<stop offset="1" stop-color="#0578FF" stop-opacity="0"/>
</linearGradient>
<clipPath id="clip0_1_387">
<rect width="1728" height="1117" fill="white"/>
</clipPath>
</defs>
</svg>
